<svg width="212" height="201" viewBox="0 0 212 201" fill="none" xmlns="http://www.w3.org/2000/svg">
<path d="M178.766 200.015C181.118 198.861 184.633 198.594 185.823 196.553C194.21 184.603 202.597 172.652 209.664 160.021C214.35 151.473 210.659 145.706 200.535 143.548C185.501 140.593 170.309 137.845 155.35 135.274C157.041 146.07 162.777 150.121 187.927 156.209C184.942 158.192 183.129 160.085 180.777 161.239C145.12 176.625 81.9817 168.739 48.895 119.557C35.0431 99.1513 22.8367 78.0351 16.5809 54.9067C12.3608 39.2314 10.3256 23.5853 14.2965 8.2635C14.8638 6.07467 14.1852 3.59028 13.9809 0.484682C3.66995 1.46251 0.796651 8.11791 0.415039 15.3644C-0.0690116 25.1546 0.144219 35.4771 2.07749 45.474C9.74561 84.1007 28.8498 118.348 58.0699 147.536C87.29 176.724 140.964 186.889 177.401 171.444C182.338 169.313 187.201 166.798 193.784 163.958C190.761 178.037 178.051 185.049 176.367 197.856C176.832 198.211 177.994 199.098 178.766 200.015Z" fill="#5748FF"/>
</svg>
