<svg width="125" height="241" viewBox="0 0 125 241" fill="none" xmlns="http://www.w3.org/2000/svg">
<path d="M124.132 0.981174C119.606 1.88215 117.468 1.32703 115.799 2.85185C109.578 8.50349 103.077 13.988 97.362 21.0213C81.8003 39.4655 69.8619 60.4316 59.7446 82.484C42.4537 120.063 32.1617 156.415 24.9215 192.427C24.1408 196.283 23.22 200.055 22.2808 204.176C22.1224 204.442 21.6654 204.889 20.9099 205.519C18.779 202.087 16.5081 198.571 14.2187 195.405C12.8547 193.871 10.8937 192.701 8.57908 192.761C7.2817 192.707 4.13815 194.793 3.02905 196.652C1.60307 199.042 0.840708 202.548 0.413596 205.174C0.32174 206.92 1.42397 207.938 2.22766 209.138C8.25529 218.135 13.966 227.664 20.2922 236.479C25.6746 244.012 30.7493 240.917 38.4096 227.122C46.3868 212.796 54.6442 198.636 62.6031 184.659C64.9981 180.326 67.2714 175.56 69.8432 170.613C60.9498 172.149 60.9498 172.149 33.1811 213.92C35.4476 190.065 41.6062 166.371 48.5019 142.396C55.3976 118.422 64.7481 94.4717 76.5716 70.1962C88.8704 45.1239 104.719 23.9701 124.132 0.981174Z" fill="#5748FF"/>
</svg>
