<svg width="447" height="128" viewBox="0 0 447 128" fill="none" xmlns="http://www.w3.org/2000/svg">
<path d="M445.743 12.0083C433.425 11.0842 421.108 10.1602 406.481 9.08212C408.405 11.0842 409.56 12.4703 411.484 13.8564C449.207 43.272 437.274 74.6899 379.536 98.5612C342.198 113.808 296.007 121.663 244.427 125.975C186.688 130.749 131.644 126.745 78.5246 117.504C51.195 112.73 30.0241 104.876 11.9327 95.635C7.3136 93.1709 3.07941 90.7068 0 87.3186C3.84924 88.2426 8.46829 89.0127 10.7778 90.3987C70.4412 123.511 211.709 131.365 313.714 109.65C353.746 101.179 383.77 88.7046 401.861 72.0717C423.032 52.5126 414.179 26.7931 380.306 10.7762C373.377 17.7066 379.536 26.6391 359.905 32.1834C360.674 22.3269 361.059 13.3943 361.829 4.61584C362.214 1.68967 366.063 -0.620438 372.992 0.149597C396.857 2.61374 420.338 5.3859 443.433 8.31207C444.973 8.46608 445.743 9.85216 446.898 10.6222C447.283 10.9302 446.513 11.5462 445.743 12.0083Z" fill="#5748FF"/>
</svg>
