<svg width="121" height="160" viewBox="0 0 121 160" fill="none" xmlns="http://www.w3.org/2000/svg">
<path d="M1.89546 159.124C1.10811 155.965 0.131083 154.863 0.576507 153.223C2.21765 147.125 3.67248 140.92 6.31613 134.585C13.0786 117.616 22.4726 101.887 33.0774 86.8513C51.1336 61.1992 70.5105 40.3659 90.5834 21.5562C92.7307 19.539 94.7849 17.4683 97.0491 15.2474C97.166 15.0436 97.3066 14.5828 97.4708 13.8648C94.7207 13.9117 91.8774 13.9053 89.2441 13.7486C87.8928 13.515 86.5889 12.767 85.9386 11.311C85.5204 10.5296 85.8744 7.7545 86.6924 6.32847C87.7441 4.49501 89.6814 2.62809 91.1751 1.31889C92.225 0.567414 93.1801 0.844541 94.1589 0.864494C101.5 1.01414 109.075 0.756349 116.392 1.16314C122.637 1.49656 122.234 5.86797 115.995 16.0973C109.523 26.7341 103.236 37.4778 96.9735 47.9643C95.0107 51.1703 92.7448 54.4733 90.4552 58.0334C88.7636 51.9189 88.7636 51.9189 106.297 18.1152C92.2495 29.0098 79.4569 42.2486 66.7099 56.0551C53.963 69.8616 41.9595 85.1775 30.4893 102.153C18.6685 119.74 10.3193 137.964 1.89546 159.124Z" fill="#5748FF"/>
</svg>
