<svg width="23" height="23" viewBox="0 0 23 23" fill="none" xmlns="http://www.w3.org/2000/svg">
<path fill-rule="evenodd" clip-rule="evenodd" d="M20.8578 15.5139H1.20661C1.11141 15.5139 1.03423 15.4367 1.03423 15.3415V13.6177H21.0301V15.3415C21.0301 15.4367 20.953 15.5139 20.8578 15.5139ZM13.2731 21.03H8.79126V16.5482H13.2731V21.03ZM1.20661 1.0342H20.8578C20.953 1.0342 21.0301 1.11137 21.0301 1.20657V12.5836H1.03423V1.20657C1.03423 1.11137 1.11141 1.0342 1.20661 1.0342ZM20.8578 0H1.20665C0.540231 0 0 0.540237 0 1.20665V15.3417C0 16.0081 0.540237 16.5483 1.20665 16.5483H7.75704V21.0302H4.99898C4.71337 21.0302 4.48184 21.2617 4.48184 21.5473C4.48184 21.8329 4.71337 22.0645 4.99898 22.0645H17.0655C17.3511 22.0645 17.5826 21.8329 17.5826 21.5473C17.5826 21.2617 17.3511 21.0302 17.0655 21.0302H14.3074V16.5483H20.8578C21.5242 16.5483 22.0645 16.0081 22.0645 15.3417V1.20666C22.0645 0.540243 21.5242 0 20.8578 0Z" fill="white"/>
</svg>
