<svg width="37" height="37" viewBox="0 0 37 37" fill="none" xmlns="http://www.w3.org/2000/svg">
<path fill-rule="evenodd" clip-rule="evenodd" d="M34.5105 25.3727H2.39057C2.23496 25.3727 2.10882 25.2466 2.10882 25.091V22.2734H34.7922V25.091C34.7922 25.2466 34.6661 25.3727 34.5105 25.3727ZM22.1133 34.3888H14.7877V27.0632H22.1133V34.3888ZM2.39057 1.70542H34.5105C34.6661 1.70542 34.7922 1.83157 34.7922 1.98717V20.5829H2.10881V1.98717C2.10881 1.83156 2.23497 1.70542 2.39057 1.70542ZM34.5105 0.0148926H2.39057C1.30131 0.0148926 0.418304 0.897913 0.418304 1.98717V25.091C0.418304 26.1802 1.30132 27.0632 2.39058 27.0632H13.0972V34.3888H8.58916C8.12233 34.3888 7.74389 34.7673 7.74389 35.2341C7.74389 35.7009 8.12233 36.0794 8.58916 36.0794H28.3119C28.7787 36.0794 29.1572 35.7009 29.1572 35.2341C29.1572 34.7673 28.7787 34.3888 28.3119 34.3888H23.8038V27.0632H34.5105C35.5997 27.0632 36.4828 26.1802 36.4828 25.091V1.98718C36.4828 0.897923 35.5997 0.0148926 34.5105 0.0148926Z" fill="white"/>
</svg>
