<svg width="22" height="25" viewBox="0 0 22 25" fill="none" xmlns="http://www.w3.org/2000/svg">
<path fill-rule="evenodd" clip-rule="evenodd" d="M17.0325 11.3327C17.087 10.9098 17.1415 10.4588 17.1415 10.0077V3.24189H20.8477C20.7115 4.70782 20.0574 9.33112 17.0325 11.3327ZM11.9636 16.6046C11.6094 16.6891 11.2551 16.7455 10.9008 16.7455C10.492 16.7455 10.0833 16.6891 9.70173 16.5764C9.61998 16.5482 9.48372 16.4918 9.42922 16.4918C7.16731 15.7025 5.4777 13.1089 5.4777 10.0361V0.874046H16.2967V10.0361C16.2967 13.1089 14.6071 15.7025 12.3179 16.4918M16.2967 22.3273V23.8778H5.53219V22.3273C7.93035 22.1299 9.78348 20.072 9.83798 17.4502C10.165 17.5066 10.5193 17.563 10.8735 17.563C11.2006 17.563 11.5276 17.5348 11.8274 17.4784C11.9364 20.0438 13.8712 22.1299 16.2967 22.3273ZM0.844815 3.24189H4.66007V10.0077C4.66007 10.4869 4.68732 10.938 4.76908 11.3891C1.66237 9.47208 0.981075 4.70782 0.844815 3.24189ZM21.5562 2.53718C21.4744 2.4526 21.3654 2.39623 21.2564 2.39623H17.1141V0.422865C17.1141 0.19734 16.9234 0 16.7054 0H5.06884C4.85083 0 4.66006 0.197334 4.66006 0.422865V2.39623H0.408775C0.299769 2.39623 0.190758 2.45261 0.109006 2.53718C0.0272486 2.62175 0 2.73451 0 2.84728C0 2.93185 0.0817573 4.73606 0.708544 6.82219C1.5806 9.61309 3.0522 11.5865 5.01433 12.4886C5.66838 14.7438 7.16723 16.5199 9.0476 17.2246V17.3092C9.0476 19.649 7.33074 21.5096 5.12335 21.5096C4.90533 21.5096 4.71457 21.707 4.71457 21.9325V24.3287C4.71457 24.5543 4.90533 24.7516 5.12335 24.7516H16.7054C16.9234 24.7516 17.1142 24.5543 17.1142 24.3287V21.9325C17.1142 21.707 16.9234 21.5096 16.7054 21.5096C14.4707 21.5096 12.6448 19.6209 12.6448 17.3092V17.2528C14.607 16.548 16.1331 14.7438 16.7871 12.4322C18.6675 11.5019 20.1118 9.55671 20.9567 6.82219C21.6107 4.73606 21.6652 2.90366 21.6652 2.84728C21.6925 2.73451 21.6379 2.62175 21.5562 2.53718Z" fill="white"/>
</svg>
