<svg width="1440" height="128" viewBox="0 0 1440 128" fill="none" xmlns="http://www.w3.org/2000/svg">
<path fill-rule="evenodd" clip-rule="evenodd" d="M-4 36.4503L26.1041 58.0662C56.2082 79.2583 116.416 122.066 176.625 119.099C236.833 116.132 297.041 66.9669 357.249 42.8079C417.457 18.2252 477.666 18.2252 537.874 42.8079C598.082 66.9669 658.29 116.132 718.498 122.066C778.706 128 838.915 91.5497 899.123 91.5497C959.331 91.5497 1019.54 128 1079.75 128C1139.96 128 1200.16 91.5497 1260.37 64C1320.58 36.4503 1380.79 18.2252 1410.89 9.3245L1442 0V0H1410.89C1380.79 0 1320.58 0 1260.37 0C1200.16 0 1139.96 0 1079.75 0C1019.54 0 959.331 0 899.123 0C838.915 0 778.706 0 718.498 0C658.29 0 598.082 0 537.874 0C477.666 0 417.457 0 357.249 0C297.041 0 236.833 0 176.625 0C116.416 0 56.2082 0 26.1041 0H-4V36.4503Z" fill="black" fill-opacity="0.05"/>
</svg>
