<svg width="156" height="56" viewBox="0 0 156 56" fill="none" xmlns="http://www.w3.org/2000/svg">
<path d="M0.510223 31.6375C1.52026 27.574 1.40636 25.209 2.49756 24.252C6.54547 20.6725 10.5215 16.7401 15.35 14.2876C28.0714 7.2893 41.9386 5.01794 56.2725 5.03984C80.7036 5.02741 103.673 11.3748 126.123 20.5838C128.528 21.5641 130.896 22.3681 133.476 23.3126C133.653 23.2767 133.97 23.0285 134.427 22.5679C132.579 18.9025 130.694 15.0607 129.022 11.3593C128.239 9.3143 127.736 6.84462 128.011 4.58416C128.112 3.27752 129.694 1.11857 130.929 0.867239C132.516 0.544098 134.708 1.38395 136.335 2.15514C137.396 2.85763 137.896 4.40938 138.536 5.7488C143.336 15.7944 148.489 25.7683 153.149 36.0262C157.133 44.7683 154.744 48.3775 145.64 49.6794C136.183 51.0532 126.798 52.7798 117.553 54.294C114.695 54.6921 111.588 54.7732 108.341 55.0667C110.185 46.9756 110.185 46.9755 138.223 38.5129C123.613 29.9129 108.699 25.2327 93.5388 21.1535C78.3791 17.0743 62.9805 15.432 47.1307 16.0861C30.7517 16.8479 16.3678 22.8986 0.510223 31.6375Z" fill="#5748FF"/>
</svg>
