<svg width="378" height="97" viewBox="0 0 378 97" fill="none" xmlns="http://www.w3.org/2000/svg">
<path fill-rule="evenodd" clip-rule="evenodd" d="M0 1.64C0 0.73425 1.30426 0 2.91316 0C4.52207 0 5.82633 0.73425 5.82633 1.64C5.82633 2.54575 4.52207 3.28 2.91316 3.28C1.30426 3.28 0 2.54575 0 1.64Z" fill="#585858"/>
<path fill-rule="evenodd" clip-rule="evenodd" d="M41.3502 1.64C41.3502 0.73425 42.6545 0 44.2634 0C45.8723 0 47.1766 0.73425 47.1766 1.64C47.1766 2.54575 45.8723 3.28 44.2634 3.28C42.6545 3.28 41.3502 2.54575 41.3502 1.64Z" fill="#585858"/>
<path fill-rule="evenodd" clip-rule="evenodd" d="M82.7074 1.64C82.7074 0.73425 84.0117 0 85.6206 0C87.2295 0 88.5337 0.73425 88.5337 1.64C88.5337 2.54575 87.2295 3.28 85.6206 3.28C84.0117 3.28 82.7074 2.54575 82.7074 1.64Z" fill="#585858"/>
<path fill-rule="evenodd" clip-rule="evenodd" d="M124.058 1.64C124.058 0.73425 125.362 0 126.971 0C128.58 0 129.884 0.73425 129.884 1.64C129.884 2.54575 128.58 3.28 126.971 3.28C125.362 3.28 124.058 2.54575 124.058 1.64Z" fill="#585858"/>
<path fill-rule="evenodd" clip-rule="evenodd" d="M165.408 1.64C165.408 0.73425 166.712 0 168.321 0C169.93 0 171.234 0.73425 171.234 1.64C171.234 2.54575 169.93 3.28 168.321 3.28C166.712 3.28 165.408 2.54575 165.408 1.64Z" fill="#585858"/>
<path fill-rule="evenodd" clip-rule="evenodd" d="M206.765 1.64C206.765 0.73425 208.069 0 209.678 0C211.287 0 212.591 0.73425 212.591 1.64C212.591 2.54575 211.287 3.28 209.678 3.28C208.069 3.28 206.765 2.54575 206.765 1.64Z" fill="#585858"/>
<path fill-rule="evenodd" clip-rule="evenodd" d="M248.115 1.64C248.115 0.73425 249.419 0 251.028 0C252.637 0 253.942 0.73425 253.942 1.64C253.942 2.54575 252.637 3.28 251.028 3.28C249.419 3.28 248.115 2.54575 248.115 1.64Z" fill="#585858"/>
<path fill-rule="evenodd" clip-rule="evenodd" d="M289.472 1.64C289.472 0.73425 290.777 0 292.386 0C293.994 0 295.299 0.73425 295.299 1.64C295.299 2.54575 293.994 3.28 292.386 3.28C290.777 3.28 289.472 2.54575 289.472 1.64Z" fill="#585858"/>
<path fill-rule="evenodd" clip-rule="evenodd" d="M330.823 1.64C330.823 0.73425 332.127 0 333.736 0C335.345 0 336.649 0.73425 336.649 1.64C336.649 2.54575 335.345 3.28 333.736 3.28C332.127 3.28 330.823 2.54575 330.823 1.64Z" fill="#585858"/>
<path fill-rule="evenodd" clip-rule="evenodd" d="M372.173 1.64C372.173 0.73425 373.477 0 375.086 0C376.695 0 377.999 0.73425 377.999 1.64C377.999 2.54575 376.695 3.28 375.086 3.28C373.477 3.28 372.173 2.54575 372.173 1.64Z" fill="#585858"/>
<path fill-rule="evenodd" clip-rule="evenodd" d="M0 24.9201C0 24.0143 1.30426 23.2801 2.91316 23.2801C4.52207 23.2801 5.82633 24.0143 5.82633 24.9201C5.82633 25.8258 4.52207 26.5601 2.91316 26.5601C1.30426 26.5601 0 25.8258 0 24.9201Z" fill="#585858"/>
<path fill-rule="evenodd" clip-rule="evenodd" d="M41.3502 24.9201C41.3502 24.0143 42.6545 23.2801 44.2634 23.2801C45.8723 23.2801 47.1766 24.0143 47.1766 24.9201C47.1766 25.8258 45.8723 26.5601 44.2634 26.5601C42.6545 26.5601 41.3502 25.8258 41.3502 24.9201Z" fill="#585858"/>
<path fill-rule="evenodd" clip-rule="evenodd" d="M82.7074 24.9201C82.7074 24.0143 84.0117 23.2801 85.6206 23.2801C87.2295 23.2801 88.5337 24.0143 88.5337 24.9201C88.5337 25.8258 87.2295 26.5601 85.6206 26.5601C84.0117 26.5601 82.7074 25.8258 82.7074 24.9201Z" fill="#585858"/>
<path fill-rule="evenodd" clip-rule="evenodd" d="M124.058 24.9201C124.058 24.0143 125.362 23.2801 126.971 23.2801C128.58 23.2801 129.884 24.0143 129.884 24.9201C129.884 25.8258 128.58 26.5601 126.971 26.5601C125.362 26.5601 124.058 25.8258 124.058 24.9201Z" fill="#585858"/>
<path fill-rule="evenodd" clip-rule="evenodd" d="M165.408 24.9201C165.408 24.0143 166.712 23.2801 168.321 23.2801C169.93 23.2801 171.234 24.0143 171.234 24.9201C171.234 25.8258 169.93 26.5601 168.321 26.5601C166.712 26.5601 165.408 25.8258 165.408 24.9201Z" fill="#585858"/>
<path fill-rule="evenodd" clip-rule="evenodd" d="M206.765 24.9201C206.765 24.0143 208.069 23.2801 209.678 23.2801C211.287 23.2801 212.591 24.0143 212.591 24.9201C212.591 25.8258 211.287 26.5601 209.678 26.5601C208.069 26.5601 206.765 25.8258 206.765 24.9201Z" fill="#585858"/>
<path fill-rule="evenodd" clip-rule="evenodd" d="M248.115 24.9201C248.115 24.0143 249.419 23.2801 251.028 23.2801C252.637 23.2801 253.942 24.0143 253.942 24.9201C253.942 25.8258 252.637 26.5601 251.028 26.5601C249.419 26.5601 248.115 25.8258 248.115 24.9201Z" fill="#585858"/>
<path fill-rule="evenodd" clip-rule="evenodd" d="M289.472 24.9201C289.472 24.0143 290.777 23.2801 292.386 23.2801C293.994 23.2801 295.299 24.0143 295.299 24.9201C295.299 25.8258 293.994 26.5601 292.386 26.5601C290.777 26.5601 289.472 25.8258 289.472 24.9201Z" fill="#585858"/>
<path fill-rule="evenodd" clip-rule="evenodd" d="M330.823 24.9201C330.823 24.0143 332.127 23.2801 333.736 23.2801C335.345 23.2801 336.649 24.0143 336.649 24.9201C336.649 25.8258 335.345 26.5601 333.736 26.5601C332.127 26.5601 330.823 25.8258 330.823 24.9201Z" fill="#585858"/>
<path fill-rule="evenodd" clip-rule="evenodd" d="M372.173 24.9201C372.173 24.0143 373.477 23.2801 375.086 23.2801C376.695 23.2801 377.999 24.0143 377.999 24.9201C377.999 25.8258 376.695 26.5601 375.086 26.5601C373.477 26.5601 372.173 25.8258 372.173 24.9201Z" fill="#585858"/>
<path fill-rule="evenodd" clip-rule="evenodd" d="M0 48.2001C0 47.2944 1.30426 46.5601 2.91316 46.5601C4.52207 46.5601 5.82633 47.2944 5.82633 48.2001C5.82633 49.1059 4.52207 49.8401 2.91316 49.8401C1.30426 49.8401 0 49.1059 0 48.2001Z" fill="#585858"/>
<path fill-rule="evenodd" clip-rule="evenodd" d="M41.3502 48.2001C41.3502 47.2944 42.6545 46.5601 44.2634 46.5601C45.8723 46.5601 47.1766 47.2944 47.1766 48.2001C47.1766 49.1059 45.8723 49.8401 44.2634 49.8401C42.6545 49.8401 41.3502 49.1059 41.3502 48.2001Z" fill="#585858"/>
<path fill-rule="evenodd" clip-rule="evenodd" d="M82.7074 48.2001C82.7074 47.2944 84.0117 46.5601 85.6206 46.5601C87.2295 46.5601 88.5337 47.2944 88.5337 48.2001C88.5337 49.1059 87.2295 49.8401 85.6206 49.8401C84.0117 49.8401 82.7074 49.1059 82.7074 48.2001Z" fill="#585858"/>
<path fill-rule="evenodd" clip-rule="evenodd" d="M124.058 48.2001C124.058 47.2944 125.362 46.5601 126.971 46.5601C128.58 46.5601 129.884 47.2944 129.884 48.2001C129.884 49.1059 128.58 49.8401 126.971 49.8401C125.362 49.8401 124.058 49.1059 124.058 48.2001Z" fill="#585858"/>
<path fill-rule="evenodd" clip-rule="evenodd" d="M165.408 48.2001C165.408 47.2944 166.712 46.5601 168.321 46.5601C169.93 46.5601 171.234 47.2944 171.234 48.2001C171.234 49.1059 169.93 49.8401 168.321 49.8401C166.712 49.8401 165.408 49.1059 165.408 48.2001Z" fill="#585858"/>
<path fill-rule="evenodd" clip-rule="evenodd" d="M206.765 48.2001C206.765 47.2944 208.069 46.5601 209.678 46.5601C211.287 46.5601 212.591 47.2944 212.591 48.2001C212.591 49.1059 211.287 49.8401 209.678 49.8401C208.069 49.8401 206.765 49.1059 206.765 48.2001Z" fill="#585858"/>
<path fill-rule="evenodd" clip-rule="evenodd" d="M248.115 48.2001C248.115 47.2944 249.419 46.5601 251.028 46.5601C252.637 46.5601 253.942 47.2944 253.942 48.2001C253.942 49.1059 252.637 49.8401 251.028 49.8401C249.419 49.8401 248.115 49.1059 248.115 48.2001Z" fill="#585858"/>
<path fill-rule="evenodd" clip-rule="evenodd" d="M289.472 48.2001C289.472 47.2944 290.777 46.5601 292.386 46.5601C293.994 46.5601 295.299 47.2944 295.299 48.2001C295.299 49.1059 293.994 49.8401 292.386 49.8401C290.777 49.8401 289.472 49.1059 289.472 48.2001Z" fill="#585858"/>
<path fill-rule="evenodd" clip-rule="evenodd" d="M330.823 48.2001C330.823 47.2944 332.127 46.5601 333.736 46.5601C335.345 46.5601 336.649 47.2944 336.649 48.2001C336.649 49.1059 335.345 49.8401 333.736 49.8401C332.127 49.8401 330.823 49.1059 330.823 48.2001Z" fill="#585858"/>
<path fill-rule="evenodd" clip-rule="evenodd" d="M372.173 48.2001C372.173 47.2944 373.477 46.5601 375.086 46.5601C376.695 46.5601 377.999 47.2944 377.999 48.2001C377.999 49.1059 376.695 49.8401 375.086 49.8401C373.477 49.8401 372.173 49.1059 372.173 48.2001Z" fill="#585858"/>
<path fill-rule="evenodd" clip-rule="evenodd" d="M0 71.4799C0 70.5742 1.30426 69.8399 2.91316 69.8399C4.52207 69.8399 5.82633 70.5742 5.82633 71.4799C5.82633 72.3857 4.52207 73.1199 2.91316 73.1199C1.30426 73.1199 0 72.3857 0 71.4799Z" fill="#585858"/>
<path fill-rule="evenodd" clip-rule="evenodd" d="M41.3502 71.4799C41.3502 70.5742 42.6545 69.8399 44.2634 69.8399C45.8723 69.8399 47.1766 70.5742 47.1766 71.4799C47.1766 72.3857 45.8723 73.1199 44.2634 73.1199C42.6545 73.1199 41.3502 72.3857 41.3502 71.4799Z" fill="#585858"/>
<path fill-rule="evenodd" clip-rule="evenodd" d="M82.7074 71.4799C82.7074 70.5742 84.0117 69.8399 85.6206 69.8399C87.2295 69.8399 88.5337 70.5742 88.5337 71.4799C88.5337 72.3857 87.2295 73.1199 85.6206 73.1199C84.0117 73.1199 82.7074 72.3857 82.7074 71.4799Z" fill="#585858"/>
<path fill-rule="evenodd" clip-rule="evenodd" d="M124.058 71.4799C124.058 70.5742 125.362 69.8399 126.971 69.8399C128.58 69.8399 129.884 70.5742 129.884 71.4799C129.884 72.3857 128.58 73.1199 126.971 73.1199C125.362 73.1199 124.058 72.3857 124.058 71.4799Z" fill="#585858"/>
<path fill-rule="evenodd" clip-rule="evenodd" d="M165.408 71.4799C165.408 70.5742 166.712 69.8399 168.321 69.8399C169.93 69.8399 171.234 70.5742 171.234 71.4799C171.234 72.3857 169.93 73.1199 168.321 73.1199C166.712 73.1199 165.408 72.3857 165.408 71.4799Z" fill="#585858"/>
<path fill-rule="evenodd" clip-rule="evenodd" d="M206.765 71.4799C206.765 70.5742 208.069 69.8399 209.678 69.8399C211.287 69.8399 212.591 70.5742 212.591 71.4799C212.591 72.3857 211.287 73.1199 209.678 73.1199C208.069 73.1199 206.765 72.3857 206.765 71.4799Z" fill="#585858"/>
<path fill-rule="evenodd" clip-rule="evenodd" d="M248.115 71.4799C248.115 70.5742 249.419 69.8399 251.028 69.8399C252.637 69.8399 253.942 70.5742 253.942 71.4799C253.942 72.3857 252.637 73.1199 251.028 73.1199C249.419 73.1199 248.115 72.3857 248.115 71.4799Z" fill="#585858"/>
<path fill-rule="evenodd" clip-rule="evenodd" d="M289.472 71.4799C289.472 70.5742 290.777 69.8399 292.386 69.8399C293.994 69.8399 295.299 70.5742 295.299 71.4799C295.299 72.3857 293.994 73.1199 292.386 73.1199C290.777 73.1199 289.472 72.3857 289.472 71.4799Z" fill="#585858"/>
<path fill-rule="evenodd" clip-rule="evenodd" d="M330.823 71.4799C330.823 70.5742 332.127 69.8399 333.736 69.8399C335.345 69.8399 336.649 70.5742 336.649 71.4799C336.649 72.3857 335.345 73.1199 333.736 73.1199C332.127 73.1199 330.823 72.3857 330.823 71.4799Z" fill="#585858"/>
<path fill-rule="evenodd" clip-rule="evenodd" d="M372.173 71.4799C372.173 70.5742 373.477 69.8399 375.086 69.8399C376.695 69.8399 377.999 70.5742 377.999 71.4799C377.999 72.3857 376.695 73.1199 375.086 73.1199C373.477 73.1199 372.173 72.3857 372.173 71.4799Z" fill="#585858"/>
<path fill-rule="evenodd" clip-rule="evenodd" d="M0 94.76C0 93.8543 1.30426 93.12 2.91316 93.12C4.52207 93.12 5.82633 93.8543 5.82633 94.76C5.82633 95.6658 4.52207 96.4 2.91316 96.4C1.30426 96.4 0 95.6658 0 94.76Z" fill="#585858"/>
<path fill-rule="evenodd" clip-rule="evenodd" d="M41.3502 94.76C41.3502 93.8542 42.6545 93.12 44.2634 93.12C45.8723 93.12 47.1766 93.8542 47.1766 94.76C47.1766 95.6657 45.8723 96.4 44.2634 96.4C42.6545 96.4 41.3502 95.6657 41.3502 94.76Z" fill="#585858"/>
<path fill-rule="evenodd" clip-rule="evenodd" d="M82.7074 94.76C82.7074 93.8542 84.0117 93.12 85.6206 93.12C87.2295 93.12 88.5337 93.8542 88.5337 94.76C88.5337 95.6657 87.2295 96.4 85.6206 96.4C84.0117 96.4 82.7074 95.6657 82.7074 94.76Z" fill="#585858"/>
<path fill-rule="evenodd" clip-rule="evenodd" d="M124.058 94.76C124.058 93.8542 125.362 93.12 126.971 93.12C128.58 93.12 129.884 93.8542 129.884 94.76C129.884 95.6657 128.58 96.4 126.971 96.4C125.362 96.4 124.058 95.6657 124.058 94.76Z" fill="#585858"/>
<path fill-rule="evenodd" clip-rule="evenodd" d="M165.408 94.76C165.408 93.8542 166.712 93.12 168.321 93.12C169.93 93.12 171.234 93.8542 171.234 94.76C171.234 95.6657 169.93 96.4 168.321 96.4C166.712 96.4 165.408 95.6657 165.408 94.76Z" fill="#585858"/>
<path fill-rule="evenodd" clip-rule="evenodd" d="M206.765 94.76C206.765 93.8542 208.069 93.12 209.678 93.12C211.287 93.12 212.591 93.8542 212.591 94.76C212.591 95.6657 211.287 96.4 209.678 96.4C208.069 96.4 206.765 95.6657 206.765 94.76Z" fill="#585858"/>
<path fill-rule="evenodd" clip-rule="evenodd" d="M248.115 94.76C248.115 93.8542 249.419 93.12 251.028 93.12C252.637 93.12 253.942 93.8542 253.942 94.76C253.942 95.6657 252.637 96.4 251.028 96.4C249.419 96.4 248.115 95.6657 248.115 94.76Z" fill="#585858"/>
<path fill-rule="evenodd" clip-rule="evenodd" d="M289.472 94.76C289.472 93.8542 290.777 93.12 292.386 93.12C293.994 93.12 295.299 93.8542 295.299 94.76C295.299 95.6657 293.994 96.4 292.386 96.4C290.777 96.4 289.472 95.6657 289.472 94.76Z" fill="#585858"/>
<path fill-rule="evenodd" clip-rule="evenodd" d="M330.823 94.76C330.823 93.8542 332.127 93.12 333.736 93.12C335.345 93.12 336.649 93.8542 336.649 94.76C336.649 95.6657 335.345 96.4 333.736 96.4C332.127 96.4 330.823 95.6657 330.823 94.76Z" fill="#585858"/>
<path fill-rule="evenodd" clip-rule="evenodd" d="M372.173 94.76C372.173 93.8542 373.477 93.12 375.086 93.12C376.695 93.12 377.999 93.8542 377.999 94.76C377.999 95.6657 376.695 96.4 375.086 96.4C373.477 96.4 372.173 95.6657 372.173 94.76Z" fill="#585858"/>
</svg>
